<svg width="32" height="32" viewBox="0 0 32 32" fill="none" xmlns="http://www.w3.org/2000/svg">
  <!-- Shopping cart with smart AI sparkle -->
  <rect width="32" height="32" rx="6" fill="#10B981"/>
  <!-- Cart body -->
  <path d="M9 12L11 24H23L25 12H9Z" fill="white" opacity="0.9"/>
  <!-- Cart handle -->
  <path d="M9 12C9 10 10 8 12 8H20C22 8 23 10 23 12" stroke="white" stroke-width="1.5" stroke-linecap="round" fill="none"/>
  <!-- Cart wheel 1 -->
  <circle cx="12" cy="26" r="2" fill="white" opacity="0.8"/>
  <!-- Cart wheel 2 -->
  <circle cx="22" cy="26" r="2" fill="white" opacity="0.8"/>
  <!-- AI sparkle/star -->
  <path d="M20 6L20.5 7L21.5 7L20.5 7.5L21 8.5L20 8L19 8.5L19.5 7.5L18.5 7L19.5 7L20 6Z" fill="white"/>
  <!-- Items in cart -->
  <circle cx="14" cy="16" r="1.5" fill="#10B981"/>
  <circle cx="18" cy="18" r="1.5" fill="#10B981"/>
</svg>

